<?xml version="1.0" encoding="utf-8"?>
<!-- Generator: Adobe Illustrator 19.0.0, SVG Export Plug-In . SVG Version: 6.00 Build 0)  -->
<svg version="1.1" id="Layer_1" xmlns="http://www.w3.org/2000/svg" xmlns:xlink="http://www.w3.org/1999/xlink" x="0px" y="0px"
	 viewBox="-378 255.3 85 85" style="enable-background:new -378 255.3 85 85;" xml:space="preserve">
<path id="XMLID_287_" d="M-335.5,255.3c-23.4,0-42.5,19.1-42.5,42.5s19.1,42.5,42.5,42.5c23.4,0,42.5-19.1,42.5-42.5
	S-312,255.3-335.5,255.3z M-335.5,337.1c-6.9,0-13.3-1.8-18.9-4.9c2.2-2.6,6.5-8.8,6.5-17.3v-30.8l24.5,32.1c0,0,0,0.1,0.1,0.1l0,0
	l0,0c0.1,0.1,0.3,0.2,0.4,0.2h2c0.3,0,0.6-0.3,0.6-0.6v-36.9c0-0.3-0.3-0.6-0.6-0.6h-2c-0.3,0-0.6,0.3-0.6,0.6v31.8l-24.5-32.2l0,0
	c-0.1-0.1-0.3-0.2-0.5-0.2h-2c-0.3,0-0.6,0.3-0.6,0.6v35.9c0,7.9-4.3,13.6-6.1,15.6c-10.6-7.1-17.6-19.1-17.6-32.8
	c0-21.7,17.6-39.3,39.3-39.3c21.7,0,39.3,17.6,39.3,39.3S-313.8,337.1-335.5,337.1z"/>
</svg>
