<?xml version="1.0" encoding="utf-8"?>
<!-- Generator: Adobe Illustrator 19.0.0, SVG Export Plug-In . SVG Version: 6.00 Build 0)  -->
<svg version="1.1" id="Layer_1" xmlns="http://www.w3.org/2000/svg" xmlns:xlink="http://www.w3.org/1999/xlink" x="0px" y="0px"
	 viewBox="-378 255.28 85 85" style="enable-background:new -378 255.28 85 85;" xml:space="preserve">
<style type="text/css">
	.st0{fill:url(#XMLID_2_);}
	.st1{fill:url(#XMLID_3_);}
	.st2{fill:url(#XMLID_4_);}
	.st3{fill:url(#XMLID_5_);}
	.st4{fill:#FFFFFF;}
</style>
<g id="XMLID_279_">
	<linearGradient id="XMLID_2_" gradientUnits="userSpaceOnUse" x1="-362.9716" y1="267.6129" x2="-362.9716" y2="330.541">
		<stop  offset="0" style="stop-color:#EF4056"/>
		<stop  offset="1" style="stop-color:#ED145B"/>
	</linearGradient>
	<path id="XMLID_283_" class="st0" d="M-374.82,297.78c0,13.66,7,25.71,17.6,32.76c1.75-2,6.09-7.77,6.09-15.63v-35.82
		c-0.3-7.02-5.6-13.58-10.25-10.84C-369.59,275.46-374.82,286.01-374.82,297.78z"/>
	<linearGradient id="XMLID_3_" gradientUnits="userSpaceOnUse" x1="-350.6284" y1="284.6497" x2="-316.5785" y2="284.6497">
		<stop  offset="0" style="stop-color:#EF4056"/>
		<stop  offset="1" style="stop-color:#F15B4E"/>
	</linearGradient>
	<path id="XMLID_282_" class="st1" d="M-335.5,258.46c-9.91,0-18.95,3.71-25.87,9.79c-2.13,2.11,1.23,5.71,10.25,10.84v-0.05
		c0-0.34,0.27-0.61,0.61-0.61h1.99c0.19,0,0.37,0.09,0.48,0.24l0,0l24.49,32.16v-31.8c0-0.33,0.27-0.6,0.6-0.6h1.99
		c0.09,0,0.16,0.06,0.24,0.1c14.86,2.95,16.85-1.67,8.61-12.28C-318.65,261.38-326.73,258.46-335.5,258.46z"/>
	<linearGradient id="XMLID_4_" gradientUnits="userSpaceOnUse" x1="-310.9245" y1="317.8571" x2="-310.9245" y2="279.0199">
		<stop  offset="0" style="stop-color:#F37043"/>
		<stop  offset="1" style="stop-color:#F15B4E"/>
	</linearGradient>
	<path id="XMLID_281_" class="st2" d="M-296.18,297.78c0-12.91-6.28-24.35-15.92-31.52l-8.61,12.28c0.2,0.1,0.36,0.26,0.36,0.5
		v36.87c0,0.26-0.15,0.47-0.37,0.56c-9.5,13.06-4.86,16.03,10.14,11.7C-301.8,320.95-296.18,310.01-296.18,297.78z"/>
	<linearGradient id="XMLID_5_" gradientUnits="userSpaceOnUse" x1="-348.0392" y1="310.5975" x2="-320.9236" y2="310.5975">
		<stop  offset="0" style="stop-color:#F58220"/>
		<stop  offset="1" style="stop-color:#F37043"/>
	</linearGradient>
	<path id="XMLID_280_" class="st3" d="M-320.96,316.51h-1.99c-0.17,0-0.32-0.07-0.43-0.18l0,0l-0.01-0.01
		c-0.03-0.03-0.05-0.06-0.08-0.1l-24.46-32.13v30.81c0,8.48-4.29,14.67-6.51,17.32c5.62,3.1,12.07,4.87,18.93,4.87
		c9.45,0,18.12-3.35,24.91-8.93l-10.14-11.7C-320.8,316.49-320.88,316.51-320.96,316.51z"/>
	<path id="XMLID_284_" class="st4" d="M-335.5,255.26c-23.45,0-42.52,19.07-42.52,42.52s19.07,42.52,42.52,42.52
		c23.45,0,42.52-19.07,42.52-42.52S-312.05,255.26-335.5,255.26z M-335.5,337.1c-6.86,0-13.31-1.77-18.93-4.87
		c2.22-2.64,6.51-8.84,6.51-17.32V284.1l24.46,32.13c0.02,0.04,0.05,0.07,0.08,0.1l0.01,0.01l0,0c0.11,0.11,0.26,0.18,0.43,0.18
		h1.99c0.33,0,0.6-0.27,0.6-0.6v-36.87c0-0.33-0.27-0.6-0.6-0.6h-1.99c-0.33,0-0.6,0.27-0.6,0.6v31.8l-24.49-32.16l0,0
		c-0.11-0.14-0.28-0.24-0.48-0.24h-1.99c-0.34,0-0.61,0.27-0.61,0.61v35.87c0,7.86-4.34,13.62-6.09,15.63
		c-10.6-7.05-17.6-19.1-17.6-32.76c0-21.68,17.64-39.32,39.32-39.32s39.32,17.64,39.32,39.32S-313.82,337.1-335.5,337.1z"/>
</g>
</svg>
